<?xml version="1.0" encoding="utf-8"?>
<svg viewBox="0 0 500 500" xmlns="http://www.w3.org/2000/svg" xmlns:bx="https://boxy-svg.com">
  <path style="fill: rgb(216, 216, 216);"
    transform="matrix(-0.481932, 0.470979, -0.470979, -0.481932, 409.446686, 330.702545)"
    d="M 204.965 286.955 L 237.035 286.955 L 244.681 322.08 A 91.053 91.053 0 0 1 266.423 331.086 L 296.667 311.656 L 319.344 334.333 L 299.914 364.577 A 91.053 91.053 0 0 1 308.92 386.319 L 344.045 393.965 L 344.045 426.035 L 308.92 433.681 A 91.053 91.053 0 0 1 299.914 455.423 L 319.344 485.667 L 296.667 508.344 L 266.423 488.914 A 91.053 91.053 0 0 1 244.681 497.92 L 237.035 533.045 L 204.965 533.045 L 197.319 497.92 A 91.053 91.053 0 0 1 175.577 488.914 L 145.333 508.344 L 122.656 485.667 L 142.086 455.423 A 91.053 91.053 0 0 1 133.08 433.681 L 97.955 426.035 L 97.955 393.965 L 133.08 386.319 A 91.053 91.053 0 0 1 142.086 364.577 L 122.656 334.333 L 145.333 311.656 L 175.577 331.086 A 91.053 91.053 0 0 1 197.319 322.08 Z M 221 357.091 A 52.909 52.909 0 0 0 221 462.909 A 52.909 52.909 0 0 0 221 357.091"
    bx:shape="cog 221 410 52.909 91.053 123.045 0.34 8 1@1579a290" />
  <path
    d="M 220 139.8 L 241.678 202.163 L 307.687 203.509 L 255.075 243.397 L 274.194 306.591 L 220 268.88 L 165.806 306.591 L 184.925 243.397 L 132.313 203.509 L 198.322 202.163 Z"
    style="stroke: rgb(218, 85, 85); fill: rgb(255, 0, 0);"
    transform="matrix(-0.811257, 0.58469, -0.58469, -0.811257, 487.305125, 288.690395)"
    bx:shape="star 220 232 92.2 92.2 0.4 5 1@c29f44dc" />
</svg>